<svg xmlns="http://www.w3.org/2000/svg" width="49" height="48" viewBox="0 0 49 48">
    <path fill="#E08433" fill-rule="evenodd" d="M48.7 8.293l-8.166-8a1.035 1.035 0 0 0-1.443 0 .985.985 0 0 0 0 1.414L40.41 3l-5.28 5.172-3.362-3.293a3.11 3.11 0 0 0-4.33 0 2.96 2.96 0 0 0 0 4.242l1.32 1.293L8.466 30.293a.989.989 0 0 0-.3.707c0 .162.035 3.58 1.696 5.925L.3 46.293a.985.985 0 0 0 0 1.414c.2.195.46.293.722.293.261 0 .522-.098.722-.293l9.562-9.367c2.384 1.624 5.865 1.66 6.05 1.66.27 0 .53-.105.721-.293l20.293-19.879 1.32 1.293a3.076 3.076 0 0 0 2.165.879c.818 0 1.587-.312 2.165-.879a2.96 2.96 0 0 0 0-4.242l-3.361-3.293 5.28-5.172 1.32 1.293c.199.195.46.293.721.293.261 0 .523-.098.722-.293a.985.985 0 0 0 0-1.414zM18.974 36l-2.34-2.293a.985.985 0 0 1 0-1.414 1.035 1.035 0 0 1 1.443 0l2.34 2.293L18.974 36zm5.104-5l-1.32-1.293a.985.985 0 0 1 0-1.414 1.035 1.035 0 0 1 1.444 0l1.32 1.293L24.077 31zm5.104-5l-2.34-2.293a.985.985 0 0 1 0-1.414 1.035 1.035 0 0 1 1.443 0l2.341 2.293L29.181 26zm6.02-5.898c-2.92-.123-4.592-.578-6.34-1.065-1.416-.393-2.87-.795-4.984-1.013l6.325-6.196 6.723 6.586-1.724 1.688z"/>
</svg>
